<?xml version="1.0" standalone="no"?><!DOCTYPE svg PUBLIC "-//W3C//DTD SVG 1.1//EN" "http://www.w3.org/Graphics/SVG/1.1/DTD/svg11.dtd"><svg t="1554818221542" class="icon" style="" viewBox="0 0 1024 1024" version="1.1" xmlns="http://www.w3.org/2000/svg" p-id="2131" xmlns:xlink="http://www.w3.org/1999/xlink" width="200" height="200"><defs><style type="text/css"></style></defs><path d="M767.1 507.5c58.6-18.3 101.3-73 101.3-137.6 0-79.5-64.6-144.1-144.1-144.1s-144.1 64.6-144.1 144.1c0 64.4 42.5 119.1 101 137.5-16 2.9-31.8 7.4-47.3 13.5-0.1 0.1-0.3 0.1-0.4 0.1-0.1 0-0.1 0-0.2 0.1l-10 4 1.2 2.7c-3.9 4.4-6.4 9.9-6.4 16.1 0 1.7 0.7 3.2 1 4.8-55.5-57.4-124.5-95.5-200-105.7 79.3-19 138.5-90.2 138.5-175.3 0-99.4-80.9-180.3-180.4-180.3s-180.4 80.9-180.4 180.3c0 85.2 59.4 156.5 138.9 175.4C147.1 469 0 668.1 0 909.1c0 16.1 13.1 29.2 29.2 29.2s29.2-13.1 29.2-29.2c0-226.4 143.3-410.6 319.4-410.6S697 682.6 697 909.1c0 16.1 13.1 29.2 29.2 29.2s29.2-13.1 29.2-29.2c0-134.5-45.9-255.8-119.2-341.4 2.2 0.7 4.5 1.3 6.8 1.4l0.8 1.9 9.1-3.5c23.4-9.1 47.5-13.7 71.7-13.7 137.3 0 249.1 143.9 249.1 320.9 0 13.9 11.3 25.2 25.1 25.2 13.9 0 25.1-11.3 25.1-25.2 0.1-187-111.8-341.5-256.8-367.2zM255.2 267.7c0-67.3 54.7-122 122-122s122 54.7 122 122-54.7 122-122 122-122-54.8-122-122zM818 369.9c0 51.7-42.1 93.8-93.8 93.8s-93.8-42.1-93.8-93.8 42.1-93.8 93.8-93.8 93.8 42.1 93.8 93.8z" fill="#162c5a" p-id="2132"></path></svg>