<?xml version="1.0" standalone="no"?><!DOCTYPE svg PUBLIC "-//W3C//DTD SVG 1.1//EN" "http://www.w3.org/Graphics/SVG/1.1/DTD/svg11.dtd"><svg t="1554818904726" class="icon" style="" viewBox="0 0 1024 1024" version="1.1" xmlns="http://www.w3.org/2000/svg" p-id="1243" xmlns:xlink="http://www.w3.org/1999/xlink" width="200" height="200"><defs><style type="text/css"></style></defs><path d="M1024 732.8v-441.6a130.752 130.752 0 0 0-130.688-130.752H130.752A130.752 130.752 0 0 0 0 291.2v441.6c0 72.192 58.496 130.688 130.688 130.688h762.56A130.688 130.688 0 0 0 1024 732.8z m-163.584-511.36c8.512 0 16.576 1.408 24.384 3.456L512 530.368 137.984 223.936c6.848-1.536 13.824-2.56 21.12-2.56h701.312zM159.104 797.632a96 96 0 0 1-96-96V317.44c0-21.312 7.168-40.768 18.944-56.704l407.68 334.08c1.536 1.216 3.392 1.664 5.056 2.56a30.72 30.72 0 0 0 6.144 3.328h0.064c10.368 3.968 22.4 2.944 31.616-4.608l406.656-333.248c10.816 15.552 17.152 34.304 17.152 54.656v384.256a96 96 0 0 1-96 96H159.104z" fill="#9a9a9a" p-id="1244"></path></svg>